<svg width="1600" height="900" viewBox="0 0 1600 900" fill="none" xmlns="http://www.w3.org/2000/svg">
  <defs>
    <radialGradient id="bg" cx="0" cy="0" r="1" gradientUnits="userSpaceOnUse" gradientTransform="translate(800 420) rotate(90) scale(560 980)">
      <stop stop-color="#EC4899" stop-opacity="0.35"/>
      <stop offset="0.55" stop-color="#6366F1" stop-opacity="0.25"/>
      <stop offset="1" stop-color="#0A0B0F"/>
    </radialGradient>
    <linearGradient id="q" x1="640" y1="320" x2="980" y2="580" gradientUnits="userSpaceOnUse">
      <stop stop-color="#FFFFFF" stop-opacity="0.20"/>
      <stop offset="1" stop-color="#FFFFFF" stop-opacity="0.08"/>
    </linearGradient>
  </defs>
  <rect width="1600" height="900" fill="#0A0B0F"/>
  <rect width="1600" height="900" fill="url(#bg)"/>

  <g opacity="0.9">
    <rect x="320" y="220" width="960" height="500" rx="34" fill="#111218" fill-opacity="0.55" stroke="#FFFFFF" stroke-opacity="0.12"/>

    <g opacity="0.95">
      <path d="M600 360 C600 310 640 280 690 280 H780 C830 280 870 310 870 360 V430 C870 480 830 520 780 520 H720 L680 580 V520 H690 C640 520 600 480 600 430 V360 Z" fill="url(#q)" stroke="#FFFFFF" stroke-opacity="0.12"/>
      <path d="M760 360 C760 330 784 306 814 306 H890 C920 306 944 330 944 360 V416 C944 446 920 470 890 470 H860 L834 510 V470 H814 C784 470 760 446 760 416 V360 Z" fill="url(#q)" stroke="#FFFFFF" stroke-opacity="0.12"/>

      <rect x="520" y="620" width="560" height="12" rx="6" fill="#FFFFFF" fill-opacity="0.14"/>
      <rect x="520" y="646" width="440" height="10" rx="5" fill="#FFFFFF" fill-opacity="0.10"/>
    </g>
  </g>
</svg>
