<svg width="1600" height="900" viewBox="0 0 1600 900" fill="none" xmlns="http://www.w3.org/2000/svg">
  <defs>
    <radialGradient id="g1" cx="0" cy="0" r="1" gradientUnits="userSpaceOnUse" gradientTransform="translate(800 380) rotate(90) scale(520 900)">
      <stop stop-color="#6366F1" stop-opacity="0.70"/>
      <stop offset="0.5" stop-color="#EC4899" stop-opacity="0.35"/>
      <stop offset="1" stop-color="#0A0B0F" stop-opacity="1"/>
    </radialGradient>
    <linearGradient id="g2" x1="300" y1="210" x2="1300" y2="680" gradientUnits="userSpaceOnUse">
      <stop stop-color="#8B5CF6" stop-opacity="0.6"/>
      <stop offset="0.5" stop-color="#3B82F6" stop-opacity="0.35"/>
      <stop offset="1" stop-color="#06B6D4" stop-opacity="0.25"/>
    </linearGradient>
    <filter id="blur" x="-200" y="-200" width="2000" height="1300" filterUnits="userSpaceOnUse">
      <feGaussianBlur stdDeviation="40"/>
    </filter>
  </defs>

  <rect width="1600" height="900" fill="#0A0B0F"/>
  <rect width="1600" height="900" fill="url(#g1)"/>

  <g filter="url(#blur)" opacity="0.9">
    <path d="M250 640 C 420 440, 560 420, 720 560 C 900 720, 1140 740, 1370 520" stroke="url(#g2)" stroke-width="18" stroke-linecap="round"/>
    <path d="M310 690 C 520 520, 640 520, 820 650 C 1010 790, 1230 790, 1410 610" stroke="#FFFFFF" stroke-opacity="0.10" stroke-width="10" stroke-linecap="round"/>
  </g>

  <g opacity="0.12">
    <circle cx="380" cy="220" r="110" fill="#6366F1"/>
    <circle cx="1240" cy="260" r="160" fill="#EC4899"/>
    <circle cx="1040" cy="720" r="140" fill="#3B82F6"/>
  </g>

  <g opacity="0.85">
    <rect x="260" y="240" width="1080" height="520" rx="34" fill="#111218" fill-opacity="0.55" stroke="#FFFFFF" stroke-opacity="0.12"/>
    <rect x="310" y="290" width="980" height="110" rx="24" fill="#1E1F29" fill-opacity="0.7" stroke="#FFFFFF" stroke-opacity="0.10"/>
    <rect x="310" y="430" width="600" height="270" rx="24" fill="#1E1F29" fill-opacity="0.7" stroke="#FFFFFF" stroke-opacity="0.10"/>
    <rect x="930" y="430" width="360" height="128" rx="24" fill="#1E1F29" fill-opacity="0.7" stroke="#FFFFFF" stroke-opacity="0.10"/>
    <rect x="930" y="572" width="360" height="128" rx="24" fill="#1E1F29" fill-opacity="0.7" stroke="#FFFFFF" stroke-opacity="0.10"/>

    <rect x="350" y="322" width="260" height="14" rx="7" fill="#FFFFFF" fill-opacity="0.25"/>
    <rect x="350" y="350" width="420" height="12" rx="6" fill="#FFFFFF" fill-opacity="0.16"/>

    <rect x="350" y="470" width="420" height="14" rx="7" fill="#FFFFFF" fill-opacity="0.18"/>
    <rect x="350" y="504" width="520" height="12" rx="6" fill="#FFFFFF" fill-opacity="0.12"/>
    <rect x="350" y="538" width="360" height="12" rx="6" fill="#FFFFFF" fill-opacity="0.12"/>

    <rect x="970" y="468" width="190" height="14" rx="7" fill="#FFFFFF" fill-opacity="0.18"/>
    <rect x="970" y="500" width="280" height="12" rx="6" fill="#FFFFFF" fill-opacity="0.12"/>

    <rect x="970" y="610" width="190" height="14" rx="7" fill="#FFFFFF" fill-opacity="0.18"/>
    <rect x="970" y="642" width="240" height="12" rx="6" fill="#FFFFFF" fill-opacity="0.12"/>

    <circle cx="1220" cy="344" r="18" fill="#6366F1" fill-opacity="0.75"/>
    <circle cx="1265" cy="344" r="18" fill="#EC4899" fill-opacity="0.65"/>
    <circle cx="1310" cy="344" r="18" fill="#3B82F6" fill-opacity="0.65"/>
  </g>
</svg>
