<svg width="1600" height="900" viewBox="0 0 1600 900" fill="none" xmlns="http://www.w3.org/2000/svg">
  <defs>
    <radialGradient id="bg" cx="0" cy="0" r="1" gradientUnits="userSpaceOnUse" gradientTransform="translate(800 420) rotate(90) scale(560 980)">
      <stop stop-color="#8B5CF6" stop-opacity="0.55"/>
      <stop offset="0.55" stop-color="#3B82F6" stop-opacity="0.25"/>
      <stop offset="1" stop-color="#0A0B0F"/>
    </radialGradient>
    <linearGradient id="glass" x1="400" y1="200" x2="1200" y2="720" gradientUnits="userSpaceOnUse">
      <stop stop-color="#FFFFFF" stop-opacity="0.16"/>
      <stop offset="1" stop-color="#FFFFFF" stop-opacity="0.06"/>
    </linearGradient>
  </defs>
  <rect width="1600" height="900" fill="#0A0B0F"/>
  <rect width="1600" height="900" fill="url(#bg)"/>

  <g opacity="0.9">
    <rect x="360" y="190" width="880" height="540" rx="34" fill="#111218" fill-opacity="0.55" stroke="#FFFFFF" stroke-opacity="0.12"/>

    <g opacity="0.95">
      <path d="M560 650 L680 420 L800 650 L920 360 L1040 650" stroke="#FFFFFF" stroke-opacity="0.22" stroke-width="10" stroke-linecap="round" stroke-linejoin="round"/>
      <path d="M560 650 L1040 650" stroke="#FFFFFF" stroke-opacity="0.14" stroke-width="6" stroke-linecap="round"/>
    </g>

    <g opacity="0.95">
      <rect x="450" y="260" width="220" height="180" rx="26" fill="url(#glass)" stroke="#FFFFFF" stroke-opacity="0.12"/>
      <rect x="690" y="290" width="220" height="210" rx="26" fill="url(#glass)" stroke="#FFFFFF" stroke-opacity="0.12"/>
      <rect x="930" y="240" width="220" height="170" rx="26" fill="url(#glass)" stroke="#FFFFFF" stroke-opacity="0.12"/>

      <rect x="450" y="470" width="220" height="180" rx="26" fill="url(#glass)" stroke="#FFFFFF" stroke-opacity="0.12"/>
      <rect x="930" y="450" width="220" height="200" rx="26" fill="url(#glass)" stroke="#FFFFFF" stroke-opacity="0.12"/>

      <circle cx="560" cy="350" r="8" fill="#EC4899" fill-opacity="0.8"/>
      <circle cx="800" cy="390" r="8" fill="#6366F1" fill-opacity="0.8"/>
      <circle cx="1040" cy="320" r="8" fill="#3B82F6" fill-opacity="0.8"/>
    </g>
  </g>
</svg>
