<svg width="1600" height="900" viewBox="0 0 1600 900" fill="none" xmlns="http://www.w3.org/2000/svg">
  <defs>
    <radialGradient id="bg" cx="0" cy="0" r="1" gradientUnits="userSpaceOnUse" gradientTransform="translate(800 420) rotate(90) scale(560 980)">
      <stop stop-color="#6366F1" stop-opacity="0.55"/>
      <stop offset="0.55" stop-color="#EC4899" stop-opacity="0.22"/>
      <stop offset="1" stop-color="#0A0B0F"/>
    </radialGradient>
    <linearGradient id="portal" x1="720" y1="250" x2="880" y2="650" gradientUnits="userSpaceOnUse">
      <stop stop-color="#FFFFFF" stop-opacity="0.20"/>
      <stop offset="1" stop-color="#FFFFFF" stop-opacity="0.06"/>
    </linearGradient>
    <linearGradient id="rim" x1="720" y1="250" x2="880" y2="650" gradientUnits="userSpaceOnUse">
      <stop stop-color="#EC4899" stop-opacity="0.75"/>
      <stop offset="0.5" stop-color="#6366F1" stop-opacity="0.75"/>
      <stop offset="1" stop-color="#3B82F6" stop-opacity="0.75"/>
    </linearGradient>
  </defs>
  <rect width="1600" height="900" fill="#0A0B0F"/>
  <rect width="1600" height="900" fill="url(#bg)"/>

  <g opacity="0.9">
    <rect x="320" y="220" width="960" height="500" rx="34" fill="#111218" fill-opacity="0.55" stroke="#FFFFFF" stroke-opacity="0.12"/>

    <rect x="700" y="260" width="200" height="420" rx="28" fill="url(#portal)" stroke="url(#rim)" stroke-width="6"/>

    <path d="M800 620 C770 620 748 596 748 566 C748 536 770 512 800 512 C830 512 852 536 852 566 C852 596 830 620 800 620 Z" fill="#FFFFFF" fill-opacity="0.12" stroke="#FFFFFF" stroke-opacity="0.16"/>
    <path d="M800 512 L800 420" stroke="#FFFFFF" stroke-opacity="0.18" stroke-width="10" stroke-linecap="round"/>

    <g opacity="0.85">
      <rect x="450" y="320" width="200" height="18" rx="9" fill="#FFFFFF" fill-opacity="0.16"/>
      <rect x="450" y="356" width="280" height="12" rx="6" fill="#FFFFFF" fill-opacity="0.10"/>
      <rect x="950" y="320" width="200" height="18" rx="9" fill="#FFFFFF" fill-opacity="0.16"/>
      <rect x="950" y="356" width="260" height="12" rx="6" fill="#FFFFFF" fill-opacity="0.10"/>
    </g>
  </g>
</svg>
