<svg width="1600" height="900" viewBox="0 0 1600 900" fill="none" xmlns="http://www.w3.org/2000/svg">
  <defs>
    <radialGradient id="bg" cx="0" cy="0" r="1" gradientUnits="userSpaceOnUse" gradientTransform="translate(800 420) rotate(90) scale(560 980)">
      <stop stop-color="#10B981" stop-opacity="0.20"/>
      <stop offset="0.25" stop-color="#6366F1" stop-opacity="0.40"/>
      <stop offset="0.6" stop-color="#EC4899" stop-opacity="0.18"/>
      <stop offset="1" stop-color="#0A0B0F"/>
    </radialGradient>
    <linearGradient id="beam" x1="480" y1="680" x2="1120" y2="320" gradientUnits="userSpaceOnUse">
      <stop stop-color="#6366F1" stop-opacity="0.85"/>
      <stop offset="0.5" stop-color="#EC4899" stop-opacity="0.65"/>
      <stop offset="1" stop-color="#3B82F6" stop-opacity="0.75"/>
    </linearGradient>
  </defs>
  <rect width="1600" height="900" fill="#0A0B0F"/>
  <rect width="1600" height="900" fill="url(#bg)"/>

  <g opacity="0.9">
    <rect x="320" y="220" width="960" height="500" rx="34" fill="#111218" fill-opacity="0.55" stroke="#FFFFFF" stroke-opacity="0.12"/>

    <path d="M480 640 L680 520 L820 560 L980 420 L1120 360" stroke="url(#beam)" stroke-width="18" stroke-linecap="round" stroke-linejoin="round"/>

    <circle cx="480" cy="640" r="12" fill="#FFFFFF" fill-opacity="0.35"/>
    <circle cx="680" cy="520" r="12" fill="#FFFFFF" fill-opacity="0.35"/>
    <circle cx="820" cy="560" r="12" fill="#FFFFFF" fill-opacity="0.35"/>
    <circle cx="980" cy="420" r="12" fill="#FFFFFF" fill-opacity="0.35"/>
    <circle cx="1120" cy="360" r="12" fill="#FFFFFF" fill-opacity="0.35"/>

    <g opacity="0.85">
      <rect x="460" y="320" width="180" height="260" rx="22" fill="#1E1F29" fill-opacity="0.72" stroke="#FFFFFF" stroke-opacity="0.10"/>
      <rect x="680" y="370" width="180" height="210" rx="22" fill="#1E1F29" fill-opacity="0.72" stroke="#FFFFFF" stroke-opacity="0.10"/>
      <rect x="900" y="410" width="180" height="170" rx="22" fill="#1E1F29" fill-opacity="0.72" stroke="#FFFFFF" stroke-opacity="0.10"/>

      <rect x="500" y="360" width="100" height="12" rx="6" fill="#FFFFFF" fill-opacity="0.18"/>
      <rect x="720" y="410" width="110" height="12" rx="6" fill="#FFFFFF" fill-opacity="0.18"/>
      <rect x="940" y="450" width="120" height="12" rx="6" fill="#FFFFFF" fill-opacity="0.18"/>
    </g>
  </g>
</svg>
