<svg width="1600" height="900" viewBox="0 0 1600 900" fill="none" xmlns="http://www.w3.org/2000/svg">
  <defs>
    <radialGradient id="bg" cx="0" cy="0" r="1" gradientUnits="userSpaceOnUse" gradientTransform="translate(820 420) rotate(90) scale(560 980)">
      <stop stop-color="#06B6D4" stop-opacity="0.35"/>
      <stop offset="0.55" stop-color="#3B82F6" stop-opacity="0.22"/>
      <stop offset="1" stop-color="#0A0B0F"/>
    </radialGradient>
    <linearGradient id="bubble" x1="560" y1="340" x2="1020" y2="620" gradientUnits="userSpaceOnUse">
      <stop stop-color="#FFFFFF" stop-opacity="0.18"/>
      <stop offset="1" stop-color="#FFFFFF" stop-opacity="0.07"/>
    </linearGradient>
  </defs>
  <rect width="1600" height="900" fill="#0A0B0F"/>
  <rect width="1600" height="900" fill="url(#bg)"/>

  <g opacity="0.9">
    <rect x="320" y="220" width="960" height="500" rx="34" fill="#111218" fill-opacity="0.55" stroke="#FFFFFF" stroke-opacity="0.12"/>

    <path d="M520 360 C520 320 552 288 592 288 H1008 C1048 288 1080 320 1080 360 V550 C1080 590 1048 622 1008 622 H740 L640 702 V622 H592 C552 622 520 590 520 550 V360 Z" fill="url(#bubble)" stroke="#FFFFFF" stroke-opacity="0.12"/>

    <g opacity="0.9">
      <rect x="600" y="370" width="380" height="14" rx="7" fill="#FFFFFF" fill-opacity="0.18"/>
      <rect x="600" y="406" width="300" height="12" rx="6" fill="#FFFFFF" fill-opacity="0.12"/>
      <rect x="600" y="442" width="260" height="12" rx="6" fill="#FFFFFF" fill-opacity="0.12"/>

      <circle cx="620" cy="520" r="10" fill="#6366F1" fill-opacity="0.85"/>
      <circle cx="660" cy="520" r="10" fill="#EC4899" fill-opacity="0.70"/>
      <circle cx="700" cy="520" r="10" fill="#3B82F6" fill-opacity="0.70"/>
    </g>
  </g>
</svg>
