<svg xmlns="http://www.w3.org/2000/svg" width="1200" height="600" viewBox="0 0 1200 600">
  <defs>
    <linearGradient id="g" x1="0" y1="0" x2="1" y2="1">
      <stop offset="0" stop-color="#f59e0b" stop-opacity="0.55"/>
      <stop offset="0.52" stop-color="#ef4444" stop-opacity="0.40"/>
      <stop offset="1" stop-color="#3b82f6" stop-opacity="0.45"/>
    </linearGradient>
    <radialGradient id="r" cx="30%" cy="35%" r="70%">
      <stop offset="0" stop-color="#ffffff" stop-opacity="0.10"/>
      <stop offset="1" stop-color="#000000" stop-opacity="0"/>
    </radialGradient>
  </defs>
  <rect width="1200" height="600" fill="#0A0B0F"/>
  <rect width="1200" height="600" fill="url(#g)" opacity="0.55"/>
  <rect width="1200" height="600" fill="url(#r)"/>

  <g opacity="0.9">
    <circle cx="900" cy="220" r="170" fill="#ffffff" opacity="0.06"/>
    <circle cx="980" cy="360" r="120" fill="#ffffff" opacity="0.05"/>
  </g>

  <g transform="translate(70,90)">
    <rect x="0" y="0" width="520" height="420" rx="28" fill="#0A0B0F" opacity="0.35" stroke="#ffffff" stroke-opacity="0.12"/>
    <text x="44" y="88" fill="#ffffff" font-size="56" font-family="system-ui, -apple-system, Segoe UI, Roboto, Arial" font-weight="800">CBSE</text>
    <text x="44" y="136" fill="#e5e7eb" font-size="22" font-family="system-ui, -apple-system, Segoe UI, Roboto, Arial" font-weight="600" opacity="0.9">Central Board of Secondary Education</text>

    <g transform="translate(44,175)">
      <rect x="0" y="0" width="220" height="44" rx="22" fill="#ffffff" opacity="0.10"/>
      <text x="18" y="29" fill="#ffffff" font-size="16" font-family="system-ui, -apple-system, Segoe UI, Roboto, Arial" font-weight="700">Classes 9–12</text>

      <rect x="240" y="0" width="210" height="44" rx="22" fill="#ffffff" opacity="0.10"/>
      <text x="258" y="29" fill="#ffffff" font-size="16" font-family="system-ui, -apple-system, Segoe UI, Roboto, Arial" font-weight="700">Board-ready</text>

      <rect x="0" y="62" width="250" height="44" rx="22" fill="#ffffff" opacity="0.10"/>
      <text x="18" y="91" fill="#ffffff" font-size="16" font-family="system-ui, -apple-system, Segoe UI, Roboto, Arial" font-weight="700">Analytics + revision</text>
    </g>

    <g transform="translate(44,308)" opacity="0.9">
      <rect x="0" y="0" width="440" height="84" rx="18" fill="#ffffff" opacity="0.08"/>
      <path d="M22 56 C 78 26, 132 26, 190 56 S 300 86, 372 46" fill="none" stroke="#ffffff" stroke-opacity="0.45" stroke-width="6" stroke-linecap="round"/>
      <circle cx="190" cy="56" r="7" fill="#ffffff" opacity="0.6"/>
      <circle cx="372" cy="46" r="7" fill="#ffffff" opacity="0.6"/>
    </g>
  </g>
</svg>
