<svg xmlns="http://www.w3.org/2000/svg" width="1200" height="600" viewBox="0 0 1200 600">
  <defs>
    <linearGradient id="g" x1="0" y1="0" x2="1" y2="1">
      <stop offset="0" stop-color="#7c3aed" stop-opacity="0.9"/>
      <stop offset="0.55" stop-color="#db2777" stop-opacity="0.55"/>
      <stop offset="1" stop-color="#2563eb" stop-opacity="0.65"/>
    </linearGradient>
    <radialGradient id="r" cx="35%" cy="35%" r="70%">
      <stop offset="0" stop-color="#ffffff" stop-opacity="0.12"/>
      <stop offset="1" stop-color="#000000" stop-opacity="0"/>
    </radialGradient>
  </defs>
  <rect width="1200" height="600" fill="#0A0B0F"/>
  <rect width="1200" height="600" fill="url(#g)" opacity="0.55"/>
  <rect width="1200" height="600" fill="url(#r)"/>

  <g opacity="0.9">
    <circle cx="260" cy="210" r="120" fill="#ffffff" opacity="0.08"/>
    <circle cx="920" cy="160" r="150" fill="#ffffff" opacity="0.06"/>
    <circle cx="980" cy="430" r="220" fill="#ffffff" opacity="0.05"/>
  </g>

  <g transform="translate(70,90)">
    <rect x="0" y="0" width="520" height="420" rx="28" fill="#0A0B0F" opacity="0.35" stroke="#ffffff" stroke-opacity="0.12"/>
    <text x="44" y="88" fill="#ffffff" font-size="56" font-family="system-ui, -apple-system, Segoe UI, Roboto, Arial" font-weight="800">IB</text>
    <text x="44" y="136" fill="#e5e7eb" font-size="22" font-family="system-ui, -apple-system, Segoe UI, Roboto, Arial" font-weight="600" opacity="0.9">International Baccalaureate</text>

    <g transform="translate(44,175)">
      <rect x="0" y="0" width="160" height="44" rx="22" fill="#ffffff" opacity="0.10"/>
      <text x="18" y="29" fill="#ffffff" font-size="16" font-family="system-ui, -apple-system, Segoe UI, Roboto, Arial" font-weight="700">DP • MYP</text>

      <rect x="180" y="0" width="220" height="44" rx="22" fill="#ffffff" opacity="0.10"/>
      <text x="198" y="29" fill="#ffffff" font-size="16" font-family="system-ui, -apple-system, Segoe UI, Roboto, Arial" font-weight="700">Structured workflow</text>

      <rect x="0" y="62" width="240" height="44" rx="22" fill="#ffffff" opacity="0.10"/>
      <text x="18" y="91" fill="#ffffff" font-size="16" font-family="system-ui, -apple-system, Segoe UI, Roboto, Arial" font-weight="700">Uploads + teacher marking</text>
    </g>

    <g transform="translate(44,320)" opacity="0.9">
      <path d="M0 40 C 80 0, 160 80, 240 40 S 400 40, 480 40" fill="none" stroke="#ffffff" stroke-opacity="0.35" stroke-width="6"/>
      <circle cx="120" cy="40" r="8" fill="#ffffff" opacity="0.6"/>
      <circle cx="240" cy="40" r="8" fill="#ffffff" opacity="0.6"/>
      <circle cx="360" cy="40" r="8" fill="#ffffff" opacity="0.6"/>
    </g>
  </g>
</svg>
