<svg xmlns="http://www.w3.org/2000/svg" width="1200" height="600" viewBox="0 0 1200 600">
  <defs>
    <linearGradient id="g" x1="0" y1="0" x2="1" y2="1">
      <stop offset="0" stop-color="#22c55e" stop-opacity="0.45"/>
      <stop offset="0.5" stop-color="#06b6d4" stop-opacity="0.45"/>
      <stop offset="1" stop-color="#a855f7" stop-opacity="0.45"/>
    </linearGradient>
    <radialGradient id="r" cx="35%" cy="35%" r="70%">
      <stop offset="0" stop-color="#ffffff" stop-opacity="0.10"/>
      <stop offset="1" stop-color="#000000" stop-opacity="0"/>
    </radialGradient>
  </defs>
  <rect width="1200" height="600" fill="#0A0B0F"/>
  <rect width="1200" height="600" fill="url(#g)" opacity="0.55"/>
  <rect width="1200" height="600" fill="url(#r)"/>

  <g opacity="0.9">
    <rect x="760" y="90" width="340" height="340" rx="42" fill="#ffffff" opacity="0.06"/>
    <rect x="820" y="150" width="220" height="220" rx="32" fill="#ffffff" opacity="0.07"/>
  </g>

  <g transform="translate(70,90)">
    <rect x="0" y="0" width="520" height="420" rx="28" fill="#0A0B0F" opacity="0.35" stroke="#ffffff" stroke-opacity="0.12"/>
    <text x="44" y="88" fill="#ffffff" font-size="56" font-family="system-ui, -apple-system, Segoe UI, Roboto, Arial" font-weight="800">ICSE</text>
    <text x="44" y="136" fill="#e5e7eb" font-size="22" font-family="system-ui, -apple-system, Segoe UI, Roboto, Arial" font-weight="600" opacity="0.9">Council for the Indian School Certificate Examinations</text>

    <g transform="translate(44,175)">
      <rect x="0" y="0" width="220" height="44" rx="22" fill="#ffffff" opacity="0.10"/>
      <text x="18" y="29" fill="#ffffff" font-size="16" font-family="system-ui, -apple-system, Segoe UI, Roboto, Arial" font-weight="700">Classes 9–10</text>

      <rect x="240" y="0" width="220" height="44" rx="22" fill="#ffffff" opacity="0.10"/>
      <text x="258" y="29" fill="#ffffff" font-size="16" font-family="system-ui, -apple-system, Segoe UI, Roboto, Arial" font-weight="700">Topic-wise packs</text>

      <rect x="0" y="62" width="200" height="44" rx="22" fill="#ffffff" opacity="0.10"/>
      <text x="18" y="91" fill="#ffffff" font-size="16" font-family="system-ui, -apple-system, Segoe UI, Roboto, Arial" font-weight="700">Timed mocks</text>
    </g>

    <g transform="translate(44,308)" opacity="0.9">
      <rect x="0" y="0" width="440" height="84" rx="18" fill="#ffffff" opacity="0.08"/>
      <path d="M22 55 L72 28 L122 50 L172 24 L222 46 L272 30 L322 52 L372 35" fill="none" stroke="#ffffff" stroke-opacity="0.45" stroke-width="6" stroke-linecap="round" stroke-linejoin="round"/>
    </g>
  </g>
</svg>
